<svg width="696" height="299" viewBox="0 0 696 299" fill="none" xmlns="http://www.w3.org/2000/svg">
<path d="M54.4531 118.625C63.5469 112.344 72.4531 107.516 81.1719 104.141C89.8906 100.766 97.4375 99.0781 103.812 99.0781C110.188 99.0781 114.266 100.906 116.047 104.562C119.703 100.344 124.25 98.0938 129.688 97.8125C131.281 97.7188 133.25 97.6719 135.594 97.6719C137.938 97.6719 139.391 98 139.953 98.6562C140.516 99.2188 141.031 100.344 141.5 102.031C141.969 103.719 142.25 104.656 142.344 104.844C142.438 105.031 142.484 105.359 142.484 105.828C142.484 106.203 142.25 106.719 141.781 107.375C141.312 107.938 140.75 108.5 140.094 109.062C139.531 109.625 139.203 109.953 139.109 110.047C118.391 139.766 97.2031 173.656 75.5469 211.719C97.8594 191.938 117.828 177.734 135.453 169.109C136.578 168.547 137.656 168.266 138.688 168.266C140.188 168.266 141.172 169.25 141.641 171.219C142.109 173.094 142.344 175.812 142.344 179.375C142.344 182.938 142.109 185.141 141.641 185.984C141.266 186.828 139.109 188.516 135.172 191.047C131.234 193.578 126.125 196.859 119.844 200.891C113.562 204.922 106.906 209.375 99.875 214.25C83 225.969 69.125 238.297 58.25 251.234C44.1875 268.203 34.1094 281.891 28.0156 292.297C25.7656 296.328 21.9688 298.344 16.625 298.344C6.03125 298.344 0.734375 293.328 0.734375 283.297C0.734375 273.078 5.75 262.625 15.7812 251.938C23.2812 243.969 30.1719 237.453 36.4531 232.391C42.7344 227.328 46.1562 224.469 46.7188 223.812C53.6562 213.406 63.0781 198.641 74.9844 179.516C64.8594 190.109 55.0156 198.547 45.4531 204.828C35.9844 211.109 28.9062 214.25 24.2188 214.25C9.875 214.25 2.70312 208.109 2.70312 195.828C2.70312 186.078 5.1875 176.234 10.1562 166.297C15.125 156.359 21.5 147.5 29.2812 139.719C37.0625 131.844 45.4531 124.812 54.4531 118.625ZM108.031 114.969C97.1562 117.312 86.9375 121.203 77.375 126.641C67.8125 131.984 59.9375 137.75 53.75 143.938C47.5625 150.031 42.2188 156.312 37.7188 162.781C29.2812 174.875 25.0625 184.25 25.0625 190.906C25.0625 192.5 25.4375 193.297 26.1875 193.297C27.0312 193.297 28.8125 192.453 31.5312 190.766C34.3438 189.078 38.2812 186.219 43.3438 182.188C48.4062 178.062 54.0312 173.188 60.2188 167.562C74.5625 154.344 90.5 136.812 108.031 114.969ZM228.125 106.812C228.125 113 225.594 118.438 220.531 123.125C215.562 127.812 209.891 130.156 203.516 130.156C201.453 130.156 200.094 129.688 199.438 128.75C198.781 127.719 198.453 126.406 198.453 124.812C198.453 123.219 198.641 121.672 199.016 120.172C195.641 121.297 191.891 123.031 187.766 125.375C183.641 127.719 178.578 131.188 172.578 135.781C166.578 140.375 163.578 143.797 163.578 146.047C163.578 146.797 164.656 147.172 166.812 147.172C169.062 147.172 172.484 146.422 177.078 144.922C181.672 143.328 184.859 142.531 186.641 142.531C188.516 142.531 189.734 142.625 190.297 142.812C191.516 143.469 192.828 144.922 194.234 147.172C195.641 149.328 196.344 151.062 196.344 152.375C196.344 153.594 195.125 155.234 192.688 157.297C190.25 159.359 187.484 160.953 184.391 162.078C181.297 163.109 179.234 163.906 178.203 164.469C158.422 175.531 148.531 183.125 148.531 187.25C148.531 194.562 154.766 198.219 167.234 198.219C175.203 198.219 183.219 195.688 191.281 190.625C198.125 186.312 204.266 181.953 209.703 177.547C215.234 173.047 218.703 170.281 220.109 169.25C221.609 168.219 222.734 167.703 223.484 167.703C225.922 167.703 227.141 170.422 227.141 175.859C227.141 181.297 226.812 184.906 226.156 186.688C225.5 188.375 223.625 190.484 220.531 193.016C200.469 209.328 181.484 217.484 163.578 217.484C154.016 217.484 146.375 216.172 140.656 213.547C130.156 208.766 124.906 201.453 124.906 191.609C124.906 178.672 133.859 168.875 151.766 162.219C148.203 160.625 145.906 158.609 144.875 156.172C143.844 153.641 143.328 149.656 143.328 144.219C143.328 138.688 145.859 132.875 150.922 126.781C156.078 120.594 162.359 115.531 169.766 111.594C186.266 102.688 200.984 98.2344 213.922 98.2344C217.016 98.2344 220.156 98.9844 223.344 100.484C226.531 101.984 228.125 104.094 228.125 106.812ZM339.359 0.921875C343.859 0.921875 347.797 2.28125 351.172 5C354.641 7.625 356.375 11.5625 356.375 16.8125C356.375 22.0625 353.469 30.3125 347.656 41.5625C341.844 52.7188 334.859 64.1562 326.703 75.875C318.547 87.5 309.312 99.875 299 113C282.688 133.812 267.031 152.516 252.031 169.109C251.938 170.234 251.516 172.344 250.766 175.438C250.109 178.438 249.781 181.484 249.781 184.578C249.781 187.672 251.188 190.484 254 193.016C256.906 195.453 260.469 196.672 264.688 196.672C268.906 196.672 273.406 195.172 278.188 192.172C283.062 189.172 287.281 185.844 290.844 182.188C300.219 172.531 306.031 167.703 308.281 167.703C310.531 167.703 311.656 171.125 311.656 177.969V180.781C311.656 184.438 311 187.109 309.688 188.797C301.812 198.453 292.953 205.672 283.109 210.453C273.266 215.141 263.938 217.484 255.125 217.484C246.312 217.484 239.609 214.812 235.016 209.469C230.422 204.031 228.125 196.625 228.125 187.25C228.125 168.969 233 147.5 242.75 122.844C252.594 98.0938 263.656 77.0469 275.938 59.7031C303.594 20.5156 324.734 0.921875 339.359 0.921875ZM333.031 24.2656C333.031 22.8594 332.562 22.1562 331.625 22.1562C328.344 22.1562 319.719 31.5313 305.75 50.2812C291.781 69.0312 281.656 83.9844 275.375 95.1406C269.188 106.297 263.328 120.312 257.797 137.188C268.859 124.062 284.141 103.625 303.641 75.875C323.234 48.0312 333.031 30.8281 333.031 24.2656ZM404.328 105.125C411.453 105.125 415.016 107.562 415.016 112.438C415.016 115.062 414.406 116.984 413.188 118.203C411.969 119.422 409.344 123.5 405.312 130.438C401.375 137.281 396.969 146.094 392.094 156.875C387.312 167.562 384.219 176.703 382.812 184.297C382.531 185.234 382.391 186.547 382.391 188.234C382.391 193.391 383.797 195.969 386.609 195.969C389.422 195.969 392.75 194.656 396.594 192.031C400.438 189.312 403.859 186.453 406.859 183.453C409.859 180.359 412.766 177.219 415.578 174.031C418.484 170.844 420.219 169.016 420.781 168.547C421.344 168.078 422.188 167.844 423.312 167.844C425.094 167.844 426.172 169.203 426.547 171.922C426.922 174.641 427.109 177.453 427.109 180.359C427.109 183.266 426.828 185.281 426.266 186.406C423.547 191.75 417.547 198.172 408.266 205.672C399.078 213.172 390.688 216.922 383.094 216.922C375.594 216.922 370.062 214.625 366.5 210.031C362.938 205.438 361.156 200.375 361.156 194.844C361.156 189.219 362.094 184.297 363.969 180.078C356.188 190.203 347.234 198.781 337.109 205.812C327.078 212.844 318.875 216.359 312.5 216.359C306.125 216.359 300.922 214.438 296.891 210.594C291.734 205.812 289.156 199.203 289.156 190.766C289.156 182.234 291.031 173.703 294.781 165.172C298.625 156.547 303.641 148.719 309.828 141.688C316.016 134.562 322.812 128.094 330.219 122.281C345.781 110.094 360.125 104 373.25 104C378.312 104 382.438 104.844 385.625 106.531C388.812 108.219 390.828 110.328 391.672 112.859C393.922 109.484 395.797 107.375 397.297 106.531C398.891 105.594 401.234 105.125 404.328 105.125ZM385.625 120.734C369.594 120.734 353 129.641 335.844 147.453C329.75 153.828 324.125 161.469 318.969 170.375C313.906 179.281 311.375 185.375 311.375 188.656C311.375 191.938 312.312 193.578 314.188 193.578C316.812 193.578 324.125 188.422 336.125 178.109C348.125 167.703 356.094 160.062 360.031 155.188C364.344 149.75 372.875 138.266 385.625 120.734ZM511.062 30.875L516.828 32.2812C517.672 32.2812 518.422 32.7031 519.078 33.5469C519.734 34.3906 520.062 35.1875 520.062 35.9375C520.062 36.6875 519.078 38.7031 517.109 41.9844C515.141 45.2656 512.797 49.0156 510.078 53.2344C507.453 57.3594 506.047 59.6094 505.859 59.9844C513.172 59.4219 518.328 59.1406 521.328 59.1406C524.422 59.1406 526.531 59.375 527.656 59.8438C528.781 60.2188 530.047 61.3906 531.453 63.3594C532.953 65.2344 534.312 66.6875 535.531 67.7188C536.75 68.6562 537.359 70.1094 537.359 72.0781C537.359 74.0469 536.141 75.7344 533.703 77.1406C531.359 78.4531 528.828 79.25 526.109 79.5312C504.359 81.6875 492.359 82.8125 490.109 82.9062C482.516 94.5312 471.875 112.672 458.188 137.328C444.594 161.891 437.375 177.266 436.531 183.453C436.156 186.266 435.969 188.562 435.969 190.344C435.969 194 437.891 195.828 441.734 195.828C445.578 195.828 449.844 194.375 454.531 191.469C459.219 188.469 463.531 185.234 467.469 181.766C477.969 172.391 483.594 167.703 484.344 167.703C486.781 167.703 488 171.922 488 180.359C488 184.953 485.891 189.078 481.672 192.734C472.203 200.891 464.234 207.031 457.766 211.156C451.297 215.281 444.828 217.344 438.359 217.344C436.953 217.344 435.641 217.203 434.422 216.922C426.922 215.516 421.391 212.797 417.828 208.766C414.359 204.641 412.625 199.109 412.625 192.172C412.719 185.234 414.781 176.844 418.812 167C422.938 157.062 428.094 146.516 434.281 135.359C444.406 117.172 454.531 100.109 464.656 84.1719L459.312 84.875C448.438 86.0938 442.109 86.7031 440.328 86.7031H439.062C436.344 86.7031 433.719 86.1875 431.188 85.1562C428.656 84.0312 427.391 82.6719 427.391 81.0781C427.391 79.4844 428.047 77.9375 429.359 76.4375C430.766 74.9375 431.609 73.7656 431.891 72.9219C432.547 70.8594 434.984 68.5625 439.203 66.0312C443.516 63.5 446.75 62.1875 448.906 62.0938C451.062 61.9062 453.125 61.7656 455.094 61.6719C457.156 61.5781 459.406 61.4844 461.844 61.3906C464.375 61.2969 466.297 61.2031 467.609 61.1094L480.266 60.5469C488.141 48.7344 493.531 41.1406 496.438 37.7656C499.438 34.3906 501.172 32.5625 501.641 32.2812C502.109 31.9062 503.047 31.7188 504.453 31.7188L511.062 30.875ZM571.672 104.844C574.484 104.844 577.344 106.109 580.25 108.641C583.25 111.172 584.75 115.062 584.75 120.312C584.75 125.469 582.922 132.219 579.266 140.562C575.609 148.812 570.594 157.25 564.219 165.875C557.844 174.406 550.812 182.469 543.125 190.062C535.531 197.562 527.281 203.75 518.375 208.625C509.562 213.406 501.547 215.797 494.328 215.797C487.109 215.797 481.297 213.547 476.891 209.047C472.578 204.453 470.422 198.125 470.422 190.062C470.422 181.906 472.391 172.906 476.328 163.062C480.359 153.219 485.516 144.547 491.797 137.047C498.078 129.453 504.875 122.656 512.188 116.656C527.469 104.375 540.875 98.2344 552.406 98.2344C557.562 98.2344 561.453 99.5 564.078 102.031C565.016 102.875 565.484 103.625 565.484 104.281V105.125C566.797 104.938 568.859 104.844 571.672 104.844ZM557.469 123.547H556.484C553.203 123.547 551.562 121.156 551.562 116.375C544.719 118.625 537.547 122.562 530.047 128.188C522.547 133.812 515.844 140.469 509.938 148.156C497.938 163.531 491.844 176.516 491.656 187.109C491.656 192.359 493.578 194.984 497.422 194.984C501.266 194.984 506.984 192.453 514.578 187.391C522.172 182.328 529.672 175.109 537.078 165.734C544.578 156.359 550.156 148.25 553.812 141.406C557.562 134.469 559.438 129.781 559.438 127.344C559.438 124.812 558.781 123.547 557.469 123.547ZM597.125 183.875L596.984 186.125C596.984 188.469 597.875 190.484 599.656 192.172C601.438 193.859 603.078 194.703 604.578 194.703C615.828 194.703 625.766 193.016 634.391 189.641C643.109 186.266 647.469 182.891 647.469 179.516C647.469 177.922 645.875 176.562 642.688 175.438C639.594 174.219 634.297 172.766 626.797 171.078C619.391 169.297 614 167.938 610.625 167C607.25 165.969 604.578 165.031 602.609 164.188C600.641 163.344 598.625 162.172 596.562 160.672C592.156 157.578 589.953 152.984 589.953 146.891C589.953 140.703 592.203 134.609 596.703 128.609C601.297 122.516 607.016 117.312 613.859 113C620.703 108.688 628.062 104.891 635.938 101.609C651.5 95.1406 664.578 91.9062 675.172 91.9062C685.578 91.9062 692 94.1562 694.438 98.6562C695.188 100.25 695.562 102.031 695.562 104V104.984C695.562 109.953 694.484 113.844 692.328 116.656C690.266 119.469 686.938 122 682.344 124.25C677.844 126.5 674.234 127.625 671.516 127.625C668.891 127.625 667.203 127.438 666.453 127.062C665.797 126.688 665.234 126.219 664.766 125.656C664.297 125 663.688 124.531 662.938 124.25C662.281 123.969 661.953 123.266 661.953 122.141C661.953 121.016 662.422 119.891 663.359 118.766C664.297 117.547 664.953 116.281 665.328 114.969C659.141 115.25 652.672 116.703 645.922 119.328C639.172 121.859 633.359 124.719 628.484 127.906C623.703 131.094 619.719 134.141 616.531 137.047C613.344 139.953 611.75 142.109 611.75 143.516C611.75 144.828 613.906 145.906 618.219 146.75C637.625 150.594 650.375 153.922 656.469 156.734C662.562 159.547 666.781 162.734 669.125 166.297C671.469 169.859 672.641 173.094 672.641 176C672.641 182 670.25 187.672 665.469 193.016C660.688 198.359 654.781 202.719 647.75 206.094C632.656 213.5 619.484 217.203 608.234 217.203C597.078 217.203 589.344 215.469 585.031 212C580.812 208.625 578.703 204.594 578.703 199.906C578.703 195.219 579.875 190.906 582.219 186.969C584.656 182.938 587.75 180.922 591.5 180.922C595.25 180.922 597.125 181.906 597.125 183.875Z" fill="#3880FF"/>
</svg>
